<svg xmlns="http://www.w3.org/2000/svg" width="345" height="85" viewBox="0 0 345 85" fill="none"><mask id="mask0_23_452" style="mask-type:luminance" maskUnits="userSpaceOnUse" x="0" y="0" width="345" height="85"><path d="M344.852 0H0V85H344.852V0Z" fill="white"></path></mask><g mask="url(#mask0_23_452)"><path d="M78.2764 29.0044H84.8353C88.8568 29.0044 91.4759 31.082 91.4759 34.1305C91.4759 36.1531 90.1526 37.6907 88.3982 38.4466C90.4494 39.0941 92.042 40.6041 92.042 43.0051C92.042 46.4587 89.0194 48.5896 85.1863 48.5896H78.2764L78.2764 29.0044ZM88.7226 34.3455C88.7226 32.1879 86.7789 31.2437 84.781 31.2437H80.9488V37.4215H84.8628C86.6438 37.4215 88.7226 36.4773 88.7226 34.3455ZM89.3163 42.9518C89.3163 40.5508 86.9949 39.6066 85.213 39.6066H80.9488V46.3512H85.1054C87.1033 46.3512 89.3163 45.2986 89.3163 42.9518Z" fill="#054A55"></path><path d="M94.4197 41.738C94.4197 37.6102 97.2814 34.5884 101.789 34.5884C105.54 34.5884 108.159 37.151 108.213 40.1729V42.358H97.0388C97.1996 44.7856 98.9007 46.7282 102.356 46.7282C104.272 46.7282 105.972 46.1082 107.322 45.1631L106.917 47.6724C105.892 48.4008 104.11 48.9133 102.248 48.9133C97.3623 48.9133 94.4197 45.8923 94.4197 41.738ZM105.811 40.4695V40.2803C105.811 38.2036 104.056 36.6927 101.735 36.6927C98.9816 36.6927 97.3081 38.3111 97.0654 40.4695H105.811Z" fill="#054A55"></path><path d="M117.851 36.8277C115.88 36.8277 113.829 38.3928 113.829 41.0096V48.59H111.211V34.9126H113.694L113.802 37.6369C114.746 35.6676 116.609 34.5884 118.715 34.5884C121.63 34.5884 123.816 36.5576 123.816 40.3079V48.59H121.171V40.6854C121.171 38.2578 119.984 36.8277 117.851 36.8277Z" fill="#054A55"></path><path d="M126.572 41.7642C126.572 37.4215 129.81 34.5889 133.266 34.5889C135.209 34.5889 137.071 35.3981 138.043 36.909V29.0044H140.661V48.5896H138.286L138.178 46.0003C137.179 47.9154 135.263 48.9138 133.157 48.9138C129.513 48.9138 126.572 46.1078 126.572 41.7642ZM138.178 41.9534V41.3867C138.178 37.9882 135.749 36.7473 133.616 36.7473C131.133 36.7473 129.217 38.6358 129.217 41.7917C129.217 44.9211 131.052 46.7553 133.616 46.7553C135.911 46.7553 138.178 45.2453 138.178 41.9534Z" fill="#054A55"></path><path d="M144.388 30.461C144.388 29.4901 145.171 28.7617 146.197 28.7617C147.195 28.7617 147.978 29.4901 147.978 30.461C147.978 31.4327 147.195 32.1611 146.197 32.1611C145.171 32.1611 144.388 31.4327 144.388 30.461ZM144.874 34.9129H147.519V48.5903H144.874V34.9129Z" fill="#054A55"></path><path d="M151.784 52.124L151.839 49.588C153.269 50.9372 154.915 51.6656 156.887 51.6656C159.721 51.6656 161.556 50.0739 161.556 47.1328V45.5144C160.557 47.1604 158.91 48.1312 156.94 48.1312C153.161 48.1312 150.489 45.2453 150.489 41.4951C150.489 37.5299 153.377 34.5889 157.075 34.5889C158.884 34.5889 160.584 35.3714 161.637 36.9623L161.772 34.9122H164.066V46.9987C164.066 51.2881 161.042 53.7699 157.048 53.7699C154.834 53.7699 152.918 53.149 151.784 52.124ZM161.664 41.4951V41.225C161.664 38.1224 159.531 36.774 157.398 36.774C154.834 36.774 153.08 38.7166 153.08 41.4675C153.08 44.2194 154.889 46.027 157.398 46.027C159.747 46.027 161.664 44.3819 161.664 41.4951Z" fill="#054A55"></path><path d="M166.957 41.7376C166.957 37.7448 170.033 34.5889 174.46 34.5889C179.022 34.5889 181.964 37.7448 181.964 41.7376C181.964 45.7569 178.968 48.9138 174.46 48.9138C169.952 48.9138 166.957 45.7569 166.957 41.7376ZM179.319 41.7376C179.319 38.7965 177.294 36.7731 174.46 36.7731C171.626 36.7731 169.601 38.8774 169.601 41.7376C169.601 44.6244 171.626 46.7287 174.46 46.7287C177.294 46.7287 179.319 44.6244 179.319 41.7376Z" fill="#054A55"></path><path d="M189.875 38.9857C189.875 33.0513 194.518 28.6802 200.915 28.6802C203.182 28.6802 205.152 29.1661 206.853 30.2986L206.907 35.1014C204.91 33.1312 203.073 32.4037 200.941 32.4037C197.433 32.4037 194.221 34.5613 194.221 38.7157C194.221 42.5468 196.921 45.1911 200.807 45.1911C203.398 45.1911 205.693 44.0035 207.231 42.4659L206.664 47.1604C205.368 47.9962 203.398 48.9138 200.645 48.9138C194.571 48.9138 189.875 44.8669 189.875 38.9857Z" fill="#009293"></path><path d="M208.773 41.7107C208.773 37.7455 211.876 34.5078 216.573 34.5078C221.567 34.5078 224.374 37.7455 224.374 41.7107C224.374 45.6768 221.431 48.9136 216.573 48.9136C211.741 48.9136 208.773 45.6768 208.773 41.7107ZM220.379 41.7107C220.379 39.3906 218.895 37.7722 216.573 37.7722C214.224 37.7722 212.793 39.5256 212.793 41.7107C212.793 43.8958 214.224 45.6492 216.573 45.6492C218.895 45.6492 220.379 43.8958 220.379 41.7107Z" fill="#009293"></path><path d="M242.19 37.7451C240.301 37.7451 239.464 39.0944 239.464 40.6586V48.5898H235.631V40.3353C235.631 38.5277 234.687 37.7451 233.418 37.7451C231.691 37.7451 230.8 39.0402 230.8 40.7936V48.5898H226.831V34.8316H230.502L230.718 36.9626C231.582 35.56 233.013 34.5083 235.119 34.5083C236.846 34.5083 238.438 35.425 239.113 37.2326C240.031 35.695 241.651 34.5083 243.756 34.5083C246.05 34.5083 248.128 36.1267 248.128 39.4177V48.5898H244.296V40.4969C244.296 38.5277 243.351 37.7451 242.19 37.7451Z" fill="#009293"></path><path d="M266.944 37.7451C265.054 37.7451 264.218 39.0944 264.218 40.6586V48.5898H260.385V40.3353C260.385 38.5277 259.44 37.7451 258.172 37.7451C256.444 37.7451 255.554 39.0402 255.554 40.7936V48.5898H251.584V34.8316H255.256L255.472 36.9626C256.336 35.56 257.767 34.5083 259.872 34.5083C261.6 34.5083 263.191 35.425 263.867 37.2326C264.784 35.695 266.404 34.5083 268.51 34.5083C270.803 34.5083 272.881 36.1267 272.881 39.4177V48.5898H269.049V40.4969C269.049 38.5277 268.104 37.7451 266.944 37.7451Z" fill="#009293"></path><path d="M276.07 43.4103V34.8315H280.038V42.8436C280.038 44.7321 280.821 45.6496 282.494 45.6496C284.195 45.6496 285.383 44.3279 285.383 42.7095V34.8315H289.351V48.5898H285.544L285.383 46.4322C284.546 47.8889 283.034 48.914 280.848 48.914C278.365 48.914 276.07 47.3222 276.07 43.4103Z" fill="#009293"></path><path d="M299.96 37.853C298.152 37.853 296.964 39.1747 296.964 40.8473V48.5902H292.996V34.8311H296.667L296.91 37.1246C297.747 35.6137 299.258 34.5078 301.526 34.5078C304.063 34.5078 306.384 36.1529 306.384 40.0923V48.5902H302.39V40.6581C302.39 38.7706 301.606 37.853 299.96 37.853Z" fill="#009293"></path><path d="M309.436 30.4608C309.436 29.1666 310.489 28.1948 311.811 28.1948C313.161 28.1948 314.214 29.1666 314.214 30.4608C314.214 31.7558 313.161 32.7276 311.811 32.7276C310.489 32.7276 309.436 31.7558 309.436 30.4608ZM309.841 34.8319H313.808V48.5901H309.841V34.8319Z" fill="#009293"></path><path d="M319.019 43.5989V38.0952H315.995V34.8318H319.019V31.4049L322.932 29.0039V34.8318H327.548V38.0952H322.932V43.4372C322.932 44.8673 323.607 45.5139 324.795 45.5139C325.362 45.5139 326.252 45.4065 327.872 45.1631L326.441 48.59C325.82 48.6975 325.01 48.7783 324.147 48.7783C321.61 48.7783 319.019 47.5374 319.019 43.5989Z" fill="#009293"></path><path d="M334.649 47.9427L328.738 34.832H332.894L336.512 43.7341L339.993 34.832H344.069L336.026 53.4464H332.003L334.649 47.9427Z" fill="#009293"></path><path d="M77.9519 59.1289H82.0277V67.1143H91.5825V59.1289H95.6591V78.7141H91.5825V70.702H82.0277V78.7141H77.9519V59.1289Z" fill="#009293"></path><path d="M98.2251 71.9165C98.2251 67.843 101.087 64.6328 105.918 64.6328C109.886 64.6328 112.504 67.2763 112.639 70.2439V72.9949H102.22C102.409 74.3717 103.623 75.8009 106.512 75.8009C108.59 75.8009 110.21 75.1533 111.56 74.3717L111.047 77.9318C110.048 78.5793 108.213 79.0377 106.296 79.0377C101.221 79.0377 98.2251 75.9625 98.2251 71.9165ZM105.783 67.708C103.651 67.708 102.409 68.868 102.22 70.2981H109.077C109.077 68.8405 107.699 67.708 105.783 67.708Z" fill="#009293"></path><path d="M119.092 79.0386C116.177 79.0386 114.288 77.231 114.288 74.9917C114.288 72.4024 116.528 71.134 119.119 70.6481C120.172 70.4864 121.953 70.1897 123.331 70.0547C123.249 68.4363 122.089 67.7346 120.279 67.7346C118.013 67.7346 116.096 68.7872 114.639 70.0281L115.287 66.4129C116.042 65.7112 118.013 64.6328 120.604 64.6328C124.14 64.6328 127.001 66.3054 127.001 69.9197V78.7144H123.357L123.331 76.8535C122.493 78.2018 121.089 79.0386 119.092 79.0386ZM120.037 76.2867C121.738 76.2867 123.331 75.1267 123.331 73.4541V72.4557C122.304 72.6174 120.846 72.8341 120.253 72.9682C118.985 73.2924 118.04 73.7508 118.04 74.7758C118.04 75.8009 118.904 76.2867 120.037 76.2867Z" fill="#009293"></path><path d="M134.344 59.1294H130.458V78.7146H134.344V59.1294Z" fill="#009293"></path><path d="M139.556 73.7239V68.2202H136.532V64.9568H139.556V61.5299L143.47 59.1289V64.9568H148.085V68.2202H143.47V73.5622C143.47 74.9923 144.144 75.6389 145.332 75.6389C145.899 75.6389 146.789 75.5315 148.408 75.2881L146.978 78.715C146.357 78.8225 145.548 78.9033 144.684 78.9033C142.147 78.9033 139.556 77.6624 139.556 73.7239Z" fill="#009293"></path><path d="M150.758 59.1289H154.645V67.1143C155.428 65.5768 157.02 64.6326 159.126 64.6326C161.69 64.6326 164.12 66.2243 164.12 69.8662V78.7141H160.151V70.702C160.151 68.8411 159.369 67.8969 157.696 67.8969C155.698 67.8969 154.726 69.3803 154.726 70.972V78.7141H150.758V59.1289Z" fill="#009293"></path><path d="M172.734 76.2558L172.708 73.0403C174.411 75.3098 176.897 76.6875 179.385 76.6875C181.791 76.6875 183.683 75.3098 183.683 73.3379C183.683 71.366 181.763 70.5816 178.952 69.6632C175.14 68.2855 172.896 66.8803 172.896 64.0982C172.896 60.9911 175.951 58.7749 179.708 58.7749C181.763 58.7749 184.196 59.4233 185.657 60.8552L185.98 63.9623C184.142 62.0446 181.791 61.1252 179.627 61.1252C177.439 61.1252 175.573 62.2338 175.573 63.9623C175.573 65.7726 177.33 66.4752 180.546 67.6104C184.061 68.7989 186.44 70.0957 186.44 73.257C186.44 76.6342 183.304 79.0387 179.438 79.0387C176.762 79.0387 174.032 77.8493 172.734 76.2558Z" fill="#054A55"></path><path d="M188.74 71.8521C188.74 67.7182 191.605 64.6919 196.12 64.6919C199.878 64.6919 202.499 67.259 202.554 70.2844V72.473H191.363C191.524 74.9051 193.227 76.8504 196.688 76.8504C198.607 76.8504 200.31 76.2286 201.661 75.2835L201.256 77.7955C200.229 78.5247 198.444 79.0381 196.58 79.0381C191.687 79.0381 188.74 76.0127 188.74 71.8521ZM200.148 70.5819V70.3927C200.148 68.3124 198.391 66.7997 196.066 66.7997C193.309 66.7997 191.632 68.4208 191.389 70.5819H200.148Z" fill="#054A55"></path><path d="M205.558 65.0166H207.963L208.044 67.4478C208.747 65.8809 210.099 64.6924 212.154 64.6924C212.829 64.6924 213.371 64.8274 213.992 65.0432L214.262 67.5019C213.532 67.2594 212.802 67.0694 211.909 67.0694C209.666 67.0694 208.125 68.5554 208.125 71.015V78.7144H205.558V65.0166Z" fill="#054A55"></path><path d="M215.507 65.0166H218.292L222.698 75.6073L227.104 65.0166H229.834L223.806 78.7144H221.508L215.507 65.0166Z" fill="#054A55"></path><path d="M231.702 60.5583C231.702 59.5857 232.486 58.8564 233.513 58.8564C234.513 58.8564 235.298 59.5857 235.298 60.5583C235.298 61.531 234.513 62.2602 233.513 62.2602C232.486 62.2602 231.702 61.531 231.702 60.5583ZM232.188 65.0165H234.838V78.7143H232.188V65.0165Z" fill="#054A55"></path><path d="M237.731 71.9334C237.731 67.827 240.948 64.6924 245.489 64.6924C247.274 64.6924 248.761 65.1791 249.76 65.935L249.842 68.6371C248.274 67.3945 246.895 66.9352 245.516 66.9352C242.543 66.9352 240.407 69.0697 240.407 71.9334C240.407 74.9056 242.597 76.7967 245.489 76.7967C247.085 76.7967 248.679 76.3374 249.896 75.3381L249.49 77.8501C248.626 78.4986 247.193 79.0386 245.355 79.0386C240.975 79.0386 237.731 76.0674 237.731 71.9334Z" fill="#054A55"></path><path d="M251.709 71.8521C251.709 67.7182 254.575 64.6919 259.089 64.6919C262.846 64.6919 265.469 67.259 265.523 70.2844V72.473H254.332C254.494 74.9051 256.196 76.8504 259.657 76.8504C261.576 76.8504 263.28 76.2286 264.631 75.2835L264.225 77.7955C263.198 78.5247 261.413 79.0381 259.549 79.0381C254.656 79.0381 251.709 76.0127 251.709 71.8521ZM263.117 70.5819V70.3927C263.117 68.3124 261.36 66.7997 259.035 66.7997C256.278 66.7997 254.601 68.4208 254.359 70.5819H263.117Z" fill="#054A55"></path><path d="M267.85 77.1746L267.877 74.4192C269.067 75.8511 271.337 76.9578 273.229 76.9578C274.825 76.9578 276.149 76.2019 276.149 75.0126C276.149 73.8783 274.986 73.3648 272.905 72.7439C269.85 71.8255 267.85 70.7978 267.85 68.5825C267.85 66.1238 270.473 64.6919 273.148 64.6919C275.067 64.6919 277.041 65.3403 278.041 66.1788L278.311 68.9067C276.934 67.664 275.041 66.7722 273.121 66.7722C271.527 66.7722 270.473 67.5023 270.473 68.4475C270.473 69.5551 271.688 70.0419 273.932 70.7169C276.392 71.3929 278.717 72.3114 278.717 74.7967C278.717 77.3362 276.203 79.0381 273.203 79.0381C271.067 79.0381 268.905 78.2014 267.85 77.1746Z" fill="#054A55"></path><path d="M45.5592 83.0359C46.352 83.0412 46.9883 82.383 46.9554 81.5915L45.3415 54.1062C45.4037 54.0627 45.4641 54.0174 45.5201 53.9623L52.7767 47.1698C53.3223 46.6306 53.3277 45.7513 52.7891 45.2059C52.2496 44.6605 51.3707 44.6543 50.825 45.1934L45.1931 50.4706L44.9327 41.6715C44.8864 40.9058 44.2288 40.3311 43.4627 40.3684C42.6966 40.4146 42.1136 41.0728 42.1598 41.8376L44.1808 81.7044C44.211 82.4452 44.818 83.0314 45.5592 83.0359Z" fill="#054A55"></path><path d="M31.6703 83.2903C30.8776 83.2806 30.2546 82.6108 30.3017 81.8194L32.6684 54.9585C32.6079 54.9141 32.5475 54.867 32.4924 54.811L22.2213 44.9345C21.6854 44.3856 21.6969 43.5062 22.2461 42.9715C22.7954 42.4358 23.6744 42.4465 24.2103 42.9954L32.8861 51.3264L33.8584 33.4742C33.9188 32.7094 34.5872 32.148 35.3524 32.1996C36.1176 32.26 36.6881 32.9288 36.6277 33.6936L33.0745 81.9855C33.0301 82.7254 32.4115 83.2992 31.6703 83.2903Z" fill="#054A55"></path></g><mask id="mask1_23_452" style="mask-type:luminance" maskUnits="userSpaceOnUse" x="0" y="1" width="70" height="66"><path d="M6.24242 3.77862C-0.148493 8.2128 0.219444 18.7626 1.65209 26.8271L1.67786 26.9888C1.71875 27.2384 1.75963 27.4889 1.80318 27.7314C2.35419 31.073 3.23315 34.4537 4.41162 37.7687L4.57959 38.2759C8.12032 48.7671 14.7512 58.3061 23.755 65.8616C24.1132 66.1618 24.5673 66.3279 25.0357 66.3279C25.6267 66.3279 26.183 66.0686 26.5616 65.6173C26.9038 65.2096 27.0673 64.6926 27.0211 64.1632C26.9749 63.6338 26.7243 63.1542 26.3172 62.8113C17.9213 55.7683 11.7295 46.8955 8.41005 37.1576C7.44844 34.2689 6.59614 31.0339 5.72873 26.9781L5.70651 26.8778C4.145 19.9431 3.18516 10.8243 7.48576 6.76761C9.98134 4.41462 14.0491 4.02466 19.5646 5.60576C27.5908 8.15239 34.2279 14.5807 39.8554 25.2576C40.769 26.9897 41.648 28.8159 42.4612 30.6608C42.7429 31.4185 43.4485 31.9159 44.3035 31.9568C45.1558 31.9985 45.9041 31.5695 46.2392 30.8749C47.7474 28.3611 51.7529 21.6832 56.0873 20.8225C57.503 20.5409 58.8264 20.8758 60.1444 21.8538C62.3182 23.3531 63.9908 25.4672 64.7303 27.6416C65.5888 30.4121 65.6643 33.4357 64.9613 36.884C64.1544 40.8403 62.4115 44.7442 60.986 47.6949C58.1189 53.37 54.6591 58.1764 50.7104 61.9754C50.4678 62.1993 50.4456 62.5635 50.6615 62.822C50.8775 63.0813 51.2392 63.1257 51.4978 62.9312C58.6504 57.7553 64.493 49.9209 67.9493 40.8669C68.0141 40.6901 68.0755 40.5107 68.1599 40.2656C69.9854 34.9591 70.2707 30.2416 69.0086 26.2444L69.006 26.2382C66.9752 20.1048 60.8011 14.6047 54.316 16.4345C49.7035 18.2146 46.6853 22.1185 44.5488 25.5214C42.0452 20.6528 36.9723 12.4027 29.1585 6.93015C24.8357 3.90209 18.9531 1.70898 13.7194 1.70898C10.9323 1.70898 8.32918 2.32989 6.24242 3.77862Z" fill="white"></path></mask><g mask="url(#mask1_23_452)"><path d="M70.2707 1.70898H-0.148438V66.3279H70.2707V1.70898Z" fill="url(#paint0_linear_23_452)"></path></g><defs><linearGradient id="paint0_linear_23_452" x1="0.782689" y1="34.018" x2="57.97" y2="34.018" gradientUnits="userSpaceOnUse"><stop stop-color="#009293"></stop><stop offset="0.38597" stop-color="#009293"></stop><stop offset="1" stop-color="#7DC244"></stop></linearGradient></defs></svg>