<svg height="193.941973" viewBox="0 0 771 290" width="515.618143" xmlns="http://www.w3.org/2000/svg"><g fill="none" fill-rule="evenodd"><path d="m416.806 116.482h29.519c-.576-6.437-6.711-11.83-13.997-11.83-7.669 0-14.563 5.219-15.522 11.83zm-20.669 8.697c0-19.657 15.097-36.53 36.234-36.53 18.295 0 33.215 13.568 33.215 32.356 0 1.217-.178 3.479-.356 4.696-.177 1.74-1.776 2.957-3.374 2.957h-45.47c.533 7.133 6.749 15.135 17.05 15.135 5.507 0 10.658-2.088 13.855-4.349 1.776-1.044 3.375-1.392 4.618 0l7.282 8.176c1.244 1.218 1.599 3.131-.177 4.522-5.862 5.393-14.92 9.568-26.465 9.568-21.315 0-36.412-16.526-36.412-36.531zm159.534 119.593c-.575-6.436-6.711-11.829-13.997-11.829-7.669 0-14.564 5.219-15.523 11.829zm19.261 4.523c0 1.217-.178 3.479-.356 4.697-.177 1.739-1.776 2.957-3.374 2.957h-45.471c.534 7.132 6.75 15.134 17.051 15.134 5.507 0 10.658-2.087 13.855-4.349 1.776-1.044 3.375-1.392 4.618 0l7.282 8.176c1.243 1.218 1.599 3.131-.177 4.523-5.862 5.393-14.92 9.568-26.466 9.568-21.314 0-36.411-16.527-36.411-36.531 0-19.657 15.097-36.531 36.234-36.531 18.295 0 33.215 13.568 33.215 32.356zm86.729-160.646c-12.981 0-19.441 6.517-22.757 9.586l-2.651-5.933c-.522-1.044-1.392-1.914-2.957-1.914h-6.774c-1.739 0-3.304 1.566-3.304 3.306v62.971c0 1.914 1.565 3.305 3.304 3.305h13.221c2.783 0 3.827-.696 3.827-3.305v-34.269c0-8.253 5.958-14.943 13.308-14.943 7.349 0 13.307 6.69 13.307 14.943v34.269c0 1.914 1.566 3.305 3.306 3.305h14.264c1.74 0 3.305-1.391 3.305-3.305v-33.747c0-17.744-7.828-34.269-29.399-34.269zm87.669 22.292c-1.632-1.07-6.087-3.505-12.872-3.505-9.742 0-16.874 8.002-16.874 17.743 0 9.742 6.61 17.744 15.83 17.744 7.925 0 12.12-5.27 13.916-9.401zm21.397-50.92v96.644c0 1.74-1.566 3.305-3.305 3.305h-6.784c-.007 0-.013-.001-.02-.001-1.546-.011-2.408-.876-2.927-1.913l-2.714-6.073c-2.151 2.349-9.885 9.727-22.172 9.727-18.961 0-33.4-16.526-33.4-36.531 0-20.353 13.742-36.53 34.444-36.53 6.958 0 12.35 1.913 15.481 3.131v-31.759c0-1.74 1.565-3.305 3.306-3.305h14.786c1.739 0 3.305 1.565 3.305 3.305zm-229.709 30.367h-13.916c-2.087 0-3.305.174-4.175 1.914l-17.395 39.313h-.174l-17.57-39.313c-.521-1.044-1.392-1.914-2.957-1.914h-15.656c-2.61 0-4.001 2.262-2.957 4.523l28.354 60.188-15.953 33.847c-1.218 2.435.349 4.696 2.957 4.696h14.786c1.393 0 2.436-1.043 2.958-2.087l44.656-96.644c1.217-2.261-.174-4.523-2.958-4.523zm-203.356 52.529h17.848c7.375 0 13.275-5.753 13.275-13.423 0-7.375-7.375-12.833-15.045-12.833h-16.078zm0-43.322h15.783c7.522 0 12.685-5.9 12.685-13.275s-5.163-12.539-12.685-12.539h-15.783zm-20.875 57.07v-96.644c0-1.74 1.565-3.305 3.305-3.305h35.123c17.553 0 31.124 11.8 31.124 27.289 0 11.357-9.294 20.208-16.226 23.453 7.818 2.507 19.175 10.473 19.175 24.044 0 16.52-14.16 28.468-32.156 28.468h-37.04c-1.74 0-3.305-1.565-3.305-3.305zm279.124-31.659c0-9.742-7.479-17.57-16.699-17.57-9.394 0-16.7 7.828-16.7 17.57 0 9.915 7.306 17.917 16.7 17.917 9.22 0 16.699-8.002 16.699-17.917zm18.961 0c0 20.004-16.004 36.704-35.66 36.704-19.657 0-35.661-16.7-35.661-36.704 0-19.658 16.004-36.357 35.661-36.357 19.656 0 35.66 16.699 35.66 36.357zm-121.591 93.672h-13.221c-2.783 0-3.827.697-3.827 3.306v34.269c0 8.253-5.958 14.944-13.307 14.944-7.35 0-13.308-6.691-13.308-14.944v-34.269c0-1.914-1.565-3.306-3.305-3.306h-14.264c-1.739 0-3.305 1.392-3.305 3.306v33.747c0 17.743 7.827 34.269 29.399 34.269 12.981 0 19.442-6.518 22.756-9.585l2.652 5.932c.522 1.044 1.391 1.913 2.957 1.913h6.773c1.739 0 3.306-1.565 3.306-3.304v-62.972c0-1.914-1.567-3.306-3.306-3.306zm-124.496 39.107c0-7.376-7.375-12.834-15.045-12.834h-16.078v26.257h17.848c7.375 0 13.275-5.753 13.275-13.423zm-31.123-29.9h15.783c7.523 0 12.685-5.9 12.685-13.275s-5.162-12.538-12.685-12.538h-15.783zm51.627 31.907c0 16.52-14.161 28.468-32.157 28.468h-37.04c-1.74 0-3.305-1.565-3.305-3.304v-96.645c0-1.739 1.565-3.305 3.305-3.305h35.123c17.553 0 31.124 11.8 31.124 27.289 0 11.358-9.293 20.209-16.226 23.454 7.818 2.507 19.176 10.472 19.176 24.043zm29.233-71.481v96.645c0 1.739-1.565 3.304-3.304 3.304h-14.265c-1.739 0-3.305-1.565-3.305-3.304v-96.645c0-1.739 1.566-3.305 3.305-3.305h14.265c1.739 0 3.304 1.566 3.304 3.305z" fill="#1775e4"/><path d="m273.753 78.491c-46.278-20.656-98.941-8.254-131.472 27.066.977 12.081.045 24.523-3.037 36.936-4.816 19.402-14.306 36.417-26.972 50.146 3.307 40.452 28.009 77.902 67.708 95.621 0 0-6.95-9.668-.404-18.007 6.547-8.34 15.737-18.315 10.815-25.204-4.921-6.889 5.034-18.399 5.034-18.399s-10.474-7.491-1.464-13.793c9.013-6.299 13.977-17.22 7.223-22.112s-21.304-16.077-2.434-26.425c18.874-10.346 44.367-24.12 51.561-39.697 17.797-38.532 41.439-36.096 41.439-36.096-5.591-3.811-11.599-7.18-17.997-10.036" fill="#f6b21b"/><path d="m139.244 142.493c3.082-12.413 4.014-24.855 3.037-36.936-8.214 8.918-15.146 19.297-20.366 30.974-8.159 18.253-11.165 37.498-9.643 56.108 12.666-13.729 22.156-30.744 26.972-50.146" fill="#b2252a"/><path d="m121.915 136.531c5.22-11.677 12.152-22.056 20.366-30.974-3.872-47.845-37.73-90.014-86.925-102.206-6.801-1.685-13.611-2.727-20.366-3.164 0 0 20.131 12.626 10.414 53.937-3.928 16.7 7.673 43.237 16.171 63 8.495 19.763-9.862 19.627-18.199 19.327-8.337-.301-11.154 11.359-7.934 21.867 3.218 10.509-9.651 9.97-9.651 9.97s.753 15.192-7.37 17.594c-8.123 2.401-7.027 15.915-7.006 26.514.019 10.599-11.415 13.942-11.415 13.942 42.201 10.459 84.742-3.857 112.272-33.699-1.522-18.61 1.484-37.855 9.643-56.108" fill="#db3161"/></g></svg>